<?xml version="1.0" encoding="utf-8"?>
<!-- Generator: Adobe Illustrator 25.2.1, SVG Export Plug-In . SVG Version: 6.00 Build 0)  -->
<svg version="1.1" id="Layer_1" xmlns="http://www.w3.org/2000/svg" xmlns:xlink="http://www.w3.org/1999/xlink" x="0px" y="0px"
	 viewBox="0 0 528.8 394.6" style="enable-background:new 0 0 528.8 394.6;" xml:space="preserve">
<style type="text/css">
	.st0{fill:none;stroke:#000000;stroke-width:4;stroke-miterlimit:10;}
	.st1{fill:#333333;}
	.st2{fill:#666666;}
	.st3{fill:#ED1C24;}
	.st4{fill:#6CC7FF;}
	.st5{fill:#CCCCCC;}
	.st6{fill:none;stroke:#000000;stroke-width:2.5;stroke-miterlimit:10;}
	.st7{fill:none;stroke:#000000;stroke-width:3.0476;stroke-miterlimit:10;}
	.st8{fill:none;stroke:#000000;stroke-width:2;stroke-miterlimit:10;}
	.st9{fill:none;stroke:#000000;stroke-width:2.1822;stroke-miterlimit:10;}
	.st10{fill:none;stroke:#000000;stroke-width:3.266;stroke-linecap:round;stroke-miterlimit:10;}
	.st11{fill:#4D4D4D;}
	.st12{fill:none;stroke:#333333;stroke-width:3;stroke-miterlimit:10;}
</style>
<g>
	<path class="st0" d="M494.8,392.6H34c-17.7,0-32-14.3-32-32V34C2,16.3,16.3,2,34,2h460.9c17.7,0,32,14.3,32,32v326.7
		C526.8,378.3,512.5,392.6,494.8,392.6z"/>
	<circle class="st1" cx="77.2" cy="226" r="46.1"/>
	<circle class="st2" cx="48.7" cy="278.9" r="6"/>
	<circle class="st3" cx="29.9" cy="262.9" r="6"/>
	<path class="st4" d="M45.6,319.8H21.3c-0.8,0-1.5-0.7-1.5-1.5V294c0-0.8,0.7-1.5,1.5-1.5h24.3c0.8,0,1.5,0.7,1.5,1.5v24.3
		C47.1,319.1,46.4,319.8,45.6,319.8z"/>
	<path class="st4" d="M95.7,319.8H71.4c-0.8,0-1.5-0.7-1.5-1.5V294c0-0.8,0.7-1.5,1.5-1.5h24.3c0.8,0,1.5,0.7,1.5,1.5v24.3
		C97.2,319.1,96.5,319.8,95.7,319.8z"/>
	<path class="st4" d="M143.4,319.8h-24.3c-0.8,0-1.5-0.7-1.5-1.5V294c0-0.8,0.7-1.5,1.5-1.5h24.3c0.8,0,1.5,0.7,1.5,1.5v24.3
		C144.9,319.1,144.3,319.8,143.4,319.8z"/>
	<path class="st5" d="M192,319.8h-24.3c-0.8,0-1.5-0.7-1.5-1.5V294c0-0.8,0.7-1.5,1.5-1.5H192c0.8,0,1.5,0.7,1.5,1.5v24.3
		C193.4,319.1,192.8,319.8,192,319.8z"/>
	<path class="st5" d="M240.9,319.8h-24.3c-0.8,0-1.5-0.7-1.5-1.5V294c0-0.8,0.7-1.5,1.5-1.5h24.3c0.8,0,1.5,0.7,1.5,1.5v24.3
		C242.4,319.1,241.7,319.8,240.9,319.8z"/>
	<path class="st5" d="M289,319.8h-24.3c-0.8,0-1.5-0.7-1.5-1.5V294c0-0.8,0.7-1.5,1.5-1.5H289c0.8,0,1.5,0.7,1.5,1.5v24.3
		C290.5,319.1,289.8,319.8,289,319.8z"/>
	<path class="st4" d="M191.8,373.7h-24.3c-0.8,0-1.5-0.7-1.5-1.5V348c0-0.8,0.7-1.5,1.5-1.5h24.3c0.8,0,1.5,0.7,1.5,1.5v24.3
		C193.2,373.1,192.6,373.7,191.8,373.7z"/>
	<path class="st4" d="M241.1,373.7h-24.3c-0.8,0-1.5-0.7-1.5-1.5V348c0-0.8,0.7-1.5,1.5-1.5h24.3c0.8,0,1.5,0.7,1.5,1.5v24.3
		C242.6,373.1,241.9,373.7,241.1,373.7z"/>
	<path class="st4" d="M289.2,373.7h-24.3c-0.8,0-1.5-0.7-1.5-1.5V348c0-0.8,0.7-1.5,1.5-1.5h24.3c0.8,0,1.5,0.7,1.5,1.5v24.3
		C290.7,373.1,290,373.7,289.2,373.7z"/>
	<path class="st5" d="M289.2,155.6h-24.3c-0.8,0-1.5-0.7-1.5-1.5v-24.3c0-0.8,0.7-1.5,1.5-1.5h24.3c0.8,0,1.5,0.7,1.5,1.5v24.3
		C290.7,154.9,290,155.6,289.2,155.6z"/>
	<path class="st5" d="M240.7,155.6h-24.3c-0.8,0-1.5-0.7-1.5-1.5v-24.3c0-0.8,0.7-1.5,1.5-1.5h24.3c0.8,0,1.5,0.7,1.5,1.5v24.3
		C242.2,154.9,241.5,155.6,240.7,155.6z"/>
	<path class="st5" d="M191.8,155.6h-24.3c-0.8,0-1.5-0.7-1.5-1.5v-24.3c0-0.8,0.7-1.5,1.5-1.5h24.3c0.8,0,1.5,0.7,1.5,1.5v24.3
		C193.2,154.9,192.6,155.6,191.8,155.6z"/>
	<path class="st5" d="M143.2,155.6h-24.3c-0.8,0-1.5-0.7-1.5-1.5v-24.3c0-0.8,0.7-1.5,1.5-1.5h24.3c0.8,0,1.5,0.7,1.5,1.5v24.3
		C144.7,154.9,144.1,155.6,143.2,155.6z"/>
	<path class="st5" d="M95.5,155.6H71.2c-0.8,0-1.5-0.7-1.5-1.5v-24.3c0-0.8,0.7-1.5,1.5-1.5h24.3c0.8,0,1.5,0.7,1.5,1.5v24.3
		C97,154.9,96.3,155.6,95.5,155.6z"/>
	<path class="st5" d="M45.4,155.6H21.1c-0.8,0-1.5-0.7-1.5-1.5v-24.3c0-0.8,0.7-1.5,1.5-1.5h24.3c0.8,0,1.5,0.7,1.5,1.5v24.3
		C46.9,154.9,46.2,155.6,45.4,155.6z"/>
	<circle class="st3" cx="314.3" cy="33.7" r="6"/>
	<circle class="st3" cx="314.3" cy="61" r="6"/>
	<circle class="st3" cx="314.3" cy="87.9" r="6"/>
	<circle class="st3" cx="314.3" cy="115.9" r="6"/>
	<circle class="st3" cx="314.3" cy="143.2" r="6"/>
	<circle class="st3" cx="314.3" cy="170.9" r="6"/>
	<circle class="st3" cx="314.3" cy="198.1" r="6"/>
	<path class="st5" d="M357.7,157.2h-24.3c-0.8,0-1.5-0.7-1.5-1.5v-24.3c0-0.8,0.7-1.5,1.5-1.5h24.3c0.8,0,1.5,0.7,1.5,1.5v24.3
		C359.2,156.6,358.6,157.2,357.7,157.2z"/>
	<path class="st5" d="M357.7,213h-24.3c-0.8,0-1.5-0.7-1.5-1.5v-24.3c0-0.8,0.7-1.5,1.5-1.5h24.3c0.8,0,1.5,0.7,1.5,1.5v24.3
		C359.2,212.3,358.6,213,357.7,213z"/>
	<path class="st5" d="M357.7,101.9h-24.3c-0.8,0-1.5-0.7-1.5-1.5V76.1c0-0.8,0.7-1.5,1.5-1.5h24.3c0.8,0,1.5,0.7,1.5,1.5v24.3
		C359.2,101.2,358.6,101.9,357.7,101.9z"/>
	<path class="st5" d="M357.7,46.6h-24.3c-0.8,0-1.5-0.7-1.5-1.5V20.8c0-0.8,0.7-1.5,1.5-1.5h24.3c0.8,0,1.5,0.7,1.5,1.5v24.3
		C359.2,45.9,358.6,46.6,357.7,46.6z"/>
	<path class="st0" d="M287.2,95.7H23.5c-2,0-3.7-1.7-3.7-3.7V29.2c0-2,1.7-3.7,3.7-3.7h263.7c2,0,3.7,1.7,3.7,3.7V92
		C290.9,94,289.2,95.7,287.2,95.7z"/>
	<path class="st0" d="M167.1,256.9h120.1c2,0,3.7-1.7,3.7-3.7v-57.5c0-2-1.7-3.7-3.7-3.7H167.1c-2,0-3.7,1.7-3.7,3.7v57.5
		C163.4,255.2,165,256.9,167.1,256.9z"/>
	<g>
		<polyline class="st6" points="163.3,214.6 188.7,234.6 214.1,214.6 239.5,234.6 264.9,214.6 290.3,234.6 		"/>
	</g>
	<rect x="263.3" y="33.6" class="st6" width="10" height="54"/>
	<line class="st6" x1="263.3" y1="46.6" x2="273.3" y2="46.6"/>
	<g>
		<circle class="st7" cx="105.3" cy="60.6" r="16"/>
		<circle class="st8" cx="105.3" cy="60.6" r="10.7"/>
		<circle class="st8" cx="105.3" cy="60.6" r="6.5"/>
	</g>
	<g>
		<circle class="st7" cx="222.3" cy="60.6" r="16"/>
		<circle class="st8" cx="222.3" cy="60.6" r="10.7"/>
		<circle class="st8" cx="222.3" cy="60.6" r="6.5"/>
	</g>
	<g>
		<circle class="st7" cx="57.3" cy="60.6" r="16"/>
		<circle class="st8" cx="57.3" cy="60.6" r="10.7"/>
		<circle class="st8" cx="57.3" cy="60.6" r="6.5"/>
	</g>
	<g>
		<line class="st9" x1="145.3" y1="85.6" x2="145.3" y2="35.6"/>
		<line class="st8" x1="142.3" y1="36.6" x2="148.3" y2="36.6"/>
		<line class="st8" x1="142.3" y1="84.6" x2="148.3" y2="84.6"/>
		<line class="st10" x1="142.3" y1="58.6" x2="148.3" y2="58.6"/>
	</g>
	<g>
		<line class="st9" x1="163.3" y1="85.6" x2="163.3" y2="35.6"/>
		<line class="st8" x1="160.3" y1="36.6" x2="166.3" y2="36.6"/>
		<line class="st8" x1="160.3" y1="84.6" x2="166.3" y2="84.6"/>
		<line class="st10" x1="160.3" y1="70.6" x2="166.3" y2="70.6"/>
	</g>
	<g>
		<line class="st9" x1="181.3" y1="85.6" x2="181.3" y2="35.6"/>
		<line class="st8" x1="178.3" y1="36.6" x2="184.3" y2="36.6"/>
		<line class="st8" x1="178.3" y1="84.6" x2="184.3" y2="84.6"/>
		<line class="st10" x1="178.3" y1="51.6" x2="184.3" y2="51.6"/>
	</g>
	<g>
		<g>
			<g>
				<circle class="st6" cx="395.1" cy="32.7" r="13.6"/>
				<circle class="st11" cx="395.1" cy="32.7" r="7.4"/>
			</g>
		</g>
		<g>
			<g>
				<ellipse class="st6" cx="444.8" cy="32.8" rx="13.6" ry="13.7"/>
				<ellipse class="st11" cx="444.8" cy="32.8" rx="7.4" ry="7.5"/>
			</g>
		</g>
		<g>
			<g>
				<circle class="st6" cx="494.6" cy="32.7" r="13.6"/>
				<circle class="st11" cx="494.6" cy="32.7" r="7.4"/>
			</g>
		</g>
		<g>
			<g>
				<circle class="st6" cx="395.1" cy="87.7" r="13.6"/>
				<circle class="st11" cx="395.1" cy="87.7" r="7.4"/>
			</g>
		</g>
		<g>
			<g>
				<circle class="st6" cx="444.8" cy="87.7" r="13.6"/>
				<circle class="st11" cx="444.8" cy="87.7" r="7.4"/>
			</g>
		</g>
		<g>
			<g>
				<circle class="st6" cx="494.6" cy="87.7" r="13.6"/>
				<circle class="st11" cx="494.6" cy="87.7" r="7.4"/>
			</g>
		</g>
		<g>
			<g>
				<circle class="st6" cx="395.1" cy="142.6" r="13.6"/>
				<circle class="st11" cx="395.1" cy="142.6" r="7.4"/>
			</g>
		</g>
		<g>
			<g>
				<circle class="st6" cx="444.8" cy="142.6" r="13.6"/>
				<circle class="st11" cx="444.8" cy="142.6" r="7.4"/>
			</g>
		</g>
		<g>
			<g>
				<circle class="st6" cx="494.6" cy="142.6" r="13.6"/>
				<circle class="st11" cx="494.6" cy="142.6" r="7.4"/>
			</g>
		</g>
		<g>
			<g>
				<circle class="st6" cx="395.1" cy="197.5" r="13.6"/>
				<circle class="st11" cx="395.1" cy="197.5" r="7.4"/>
			</g>
		</g>
		<g>
			<g>
				<circle class="st6" cx="444.8" cy="197.5" r="13.6"/>
				<circle class="st11" cx="444.8" cy="197.5" r="7.4"/>
			</g>
		</g>
		<g>
			<g>
				<circle class="st6" cx="494.6" cy="197.5" r="13.6"/>
				<circle class="st11" cx="494.6" cy="197.5" r="7.4"/>
			</g>
		</g>
		<g>
			<g>
				<circle class="st6" cx="345.4" cy="252.4" r="13.6"/>
				<circle class="st11" cx="345.4" cy="252.4" r="7.4"/>
			</g>
		</g>
		<g>
			<g>
				<circle class="st6" cx="395.1" cy="252.4" r="13.6"/>
				<circle class="st11" cx="395.1" cy="252.4" r="7.4"/>
			</g>
		</g>
		<g>
			<g>
				<circle class="st6" cx="444.8" cy="252.4" r="13.6"/>
				<circle class="st11" cx="444.8" cy="252.4" r="7.4"/>
			</g>
		</g>
		<g>
			<g>
				<circle class="st6" cx="494.6" cy="252.4" r="13.6"/>
				<circle class="st11" cx="494.6" cy="252.4" r="7.4"/>
			</g>
		</g>
		<g>
			<g>
				<circle class="st6" cx="345.4" cy="307.4" r="13.6"/>
				<circle class="st11" cx="345.4" cy="307.4" r="7.4"/>
			</g>
		</g>
		<g>
			<g>
				<circle class="st6" cx="395.1" cy="307.4" r="13.6"/>
				<circle class="st11" cx="395.1" cy="307.4" r="7.4"/>
			</g>
		</g>
		<g>
			<g>
				<circle class="st6" cx="444.8" cy="307.4" r="13.6"/>
				<circle class="st11" cx="444.8" cy="307.4" r="7.4"/>
			</g>
		</g>
		<g>
			<g>
				<circle class="st6" cx="494.6" cy="307.4" r="13.6"/>
				<circle class="st11" cx="494.6" cy="307.4" r="7.4"/>
			</g>
		</g>
		<g>
			<g>
				<circle class="st6" cx="345.4" cy="362.3" r="13.6"/>
				<circle class="st11" cx="345.4" cy="362.3" r="7.4"/>
			</g>
		</g>
		<g>
			<g>
				<circle class="st6" cx="395.1" cy="362.3" r="13.6"/>
				<circle class="st11" cx="395.1" cy="362.3" r="7.4"/>
			</g>
		</g>
		<g>
			<g>
				<circle class="st6" cx="444.8" cy="362.3" r="13.6"/>
				<circle class="st11" cx="444.8" cy="362.3" r="7.4"/>
			</g>
		</g>
		<g>
			<g>
				<circle class="st6" cx="494.6" cy="362.3" r="13.6"/>
				<circle class="st11" cx="494.6" cy="362.3" r="7.4"/>
			</g>
		</g>
	</g>
	<rect x="77.3" y="342.6" class="st12" width="6" height="34"/>
	<circle class="st3" cx="96" cy="367.9" r="6"/>
	<circle class="st2" cx="96" cy="350.9" r="6"/>
</g>
</svg>
