<?xml version="1.0" encoding="utf-8"?>
<!-- Generator: Adobe Illustrator 25.3.1, SVG Export Plug-In . SVG Version: 6.00 Build 0)  -->
<svg version="1.1" id="Layer_1" xmlns="http://www.w3.org/2000/svg" xmlns:xlink="http://www.w3.org/1999/xlink" x="0px" y="0px"
	 viewBox="0 0 28 28" style="enable-background:new 0 0 28 28;" xml:space="preserve">
<style type="text/css">
	.st0{fill:#4D4D4D;}
</style>
<g>
	<path class="st0" d="M25.3,6.5H2.7C1.8,6.5,1,5.7,1,4.7v0C1,3.8,1.8,3,2.7,3h22.5c1,0,1.7,0.8,1.7,1.7v0C27,5.7,26.2,6.5,25.3,6.5z
		"/>
</g>
<g>
	<path class="st0" d="M25.3,15.5H2.7c-1,0-1.7-0.8-1.7-1.7v0c0-1,0.8-1.7,1.7-1.7h22.5c1,0,1.7,0.8,1.7,1.7v0
		C27,14.7,26.2,15.5,25.3,15.5z"/>
</g>
<g>
	<path class="st0" d="M25.3,24.5H2.7c-1,0-1.7-0.8-1.7-1.7v0c0-1,0.8-1.7,1.7-1.7h22.5c1,0,1.7,0.8,1.7,1.7v0
		C27,23.7,26.2,24.5,25.3,24.5z"/>
</g>
</svg>
