<?xml version="1.0" encoding="utf-8"?>
<!-- Generator: Adobe Illustrator 25.4.1, SVG Export Plug-In . SVG Version: 6.00 Build 0)  -->
<svg version="1.1" id="Layer_1" xmlns="http://www.w3.org/2000/svg" xmlns:xlink="http://www.w3.org/1999/xlink" x="0px" y="0px"
	 viewBox="0 0 149.2 111.4" style="enable-background:new 0 0 149.2 111.4;" xml:space="preserve">
<style type="text/css">
	.st0{fill:none;stroke:#000000;stroke-width:1.4478;stroke-miterlimit:10;}
	.st1{stroke:#000000;stroke-width:6.294732e-02;stroke-miterlimit:10;}
	.st2{fill:#666666;}
	.st3{fill:#CC3333;}
	.st4{fill:#3399FF;}
	.st5{fill:#96A1A8;}
	.st6{fill:none;stroke:#000000;stroke-width:1.1264;stroke-miterlimit:10;}
	.st7{fill:none;stroke:#000000;stroke-width:1.1331;stroke-miterlimit:10;}
	.st8{fill:none;stroke:#000000;stroke-width:0.704;stroke-miterlimit:10;}
	.st9{fill:none;stroke:#000000;stroke-width:1.3848;stroke-miterlimit:10;}
	.st10{fill:none;stroke:#000000;stroke-width:1.1331;stroke-linecap:round;stroke-miterlimit:10;}
	.st11{fill:none;stroke:#000000;stroke-width:1.2589;stroke-miterlimit:10;}
	.st12{fill:none;stroke:#000000;stroke-width:0.8813;stroke-miterlimit:10;}
	.st13{clip-path:url(#clip_00000008131886411975988740000009383933194907106963_);}
	.st14{fill:none;stroke:#000000;stroke-width:1.5107;stroke-miterlimit:10;}
</style>
<g>
	<path class="st0" d="M139.5,110.7H9.7c-5,0-9-4-9-9v-92c0-5,4-9,9-9h129.8c5,0,9,4,9,9v92C148.5,106.7,144.5,110.7,139.5,110.7z"/>
	<circle class="st1" cx="21.9" cy="63.8" r="13"/>
	<circle class="st2" cx="13.9" cy="78.7" r="1.7"/>
	<circle class="st3" cx="8.6" cy="74.2" r="1.7"/>
	<path class="st4" d="M13,90.2H6.2c-0.2,0-0.4-0.2-0.4-0.4V83c0-0.2,0.2-0.4,0.4-0.4H13c0.2,0,0.4,0.2,0.4,0.4v6.8
		C13.4,90,13.2,90.2,13,90.2z"/>
	<path class="st4" d="M27.1,90.2h-6.8c-0.2,0-0.4-0.2-0.4-0.4V83c0-0.2,0.2-0.4,0.4-0.4h6.8c0.2,0,0.4,0.2,0.4,0.4v6.8
		C27.5,90,27.3,90.2,27.1,90.2z"/>
	<path class="st4" d="M40.6,90.2h-6.8c-0.2,0-0.4-0.2-0.4-0.4V83c0-0.2,0.2-0.4,0.4-0.4h6.8c0.2,0,0.4,0.2,0.4,0.4v6.8
		C41,90,40.8,90.2,40.6,90.2z"/>
	<path class="st5" d="M54.2,90.2h-6.8c-0.2,0-0.4-0.2-0.4-0.4V83c0-0.2,0.2-0.4,0.4-0.4h6.8c0.2,0,0.4,0.2,0.4,0.4v6.8
		C54.6,90,54.4,90.2,54.2,90.2z"/>
	<path class="st5" d="M68,90.2h-6.8c-0.2,0-0.4-0.2-0.4-0.4V83c0-0.2,0.2-0.4,0.4-0.4H68c0.2,0,0.4,0.2,0.4,0.4v6.8
		C68.4,90,68.2,90.2,68,90.2z"/>
	<path class="st5" d="M81.5,90.2h-6.8c-0.2,0-0.4-0.2-0.4-0.4V83c0-0.2,0.2-0.4,0.4-0.4h6.8c0.2,0,0.4,0.2,0.4,0.4v6.8
		C82,90,81.8,90.2,81.5,90.2z"/>
	<path class="st4" d="M54.2,105.4h-6.8c-0.2,0-0.4-0.2-0.4-0.4v-6.8c0-0.2,0.2-0.4,0.4-0.4h6.8c0.2,0,0.4,0.2,0.4,0.4v6.8
		C54.6,105.2,54.4,105.4,54.2,105.4z"/>
	<path class="st4" d="M68,105.4h-6.8c-0.2,0-0.4-0.2-0.4-0.4v-6.8c0-0.2,0.2-0.4,0.4-0.4H68c0.2,0,0.4,0.2,0.4,0.4v6.8
		C68.5,105.2,68.3,105.4,68,105.4z"/>
	<path class="st4" d="M81.6,105.4h-6.8c-0.2,0-0.4-0.2-0.4-0.4v-6.8c0-0.2,0.2-0.4,0.4-0.4h6.8c0.2,0,0.4,0.2,0.4,0.4v6.8
		C82,105.2,81.8,105.4,81.6,105.4z"/>
	<path class="st5" d="M81.6,44h-6.8c-0.2,0-0.4-0.2-0.4-0.4v-6.8c0-0.2,0.2-0.4,0.4-0.4h6.8c0.2,0,0.4,0.2,0.4,0.4v6.8
		C82,43.8,81.8,44,81.6,44z"/>
	<path class="st5" d="M67.9,44h-6.8c-0.2,0-0.4-0.2-0.4-0.4v-6.8c0-0.2,0.2-0.4,0.4-0.4h6.8c0.2,0,0.4,0.2,0.4,0.4v6.8
		C68.4,43.8,68.2,44,67.9,44z"/>
	<path class="st5" d="M54.2,44h-6.8c-0.2,0-0.4-0.2-0.4-0.4v-6.8c0-0.2,0.2-0.4,0.4-0.4h6.8c0.2,0,0.4,0.2,0.4,0.4v6.8
		C54.6,43.8,54.4,44,54.2,44z"/>
	<path class="st5" d="M40.5,44h-6.8c-0.2,0-0.4-0.2-0.4-0.4v-6.8c0-0.2,0.2-0.4,0.4-0.4h6.8c0.2,0,0.4,0.2,0.4,0.4v6.8
		C40.9,43.8,40.7,44,40.5,44z"/>
	<path class="st5" d="M27.1,44h-6.8c-0.2,0-0.4-0.2-0.4-0.4v-6.8c0-0.2,0.2-0.4,0.4-0.4h6.8c0.2,0,0.4,0.2,0.4,0.4v6.8
		C27.5,43.8,27.3,44,27.1,44z"/>
	<path class="st5" d="M12.9,44H6.1c-0.2,0-0.4-0.2-0.4-0.4v-6.8c0-0.2,0.2-0.4,0.4-0.4h6.8c0.2,0,0.4,0.2,0.4,0.4v6.8
		C13.4,43.8,13.2,44,12.9,44z"/>
	<circle class="st3" cx="88.7" cy="9.7" r="1.7"/>
	<circle class="st3" cx="88.7" cy="17.3" r="1.7"/>
	<circle class="st3" cx="88.7" cy="24.9" r="1.7"/>
	<circle class="st3" cx="88.7" cy="32.8" r="1.7"/>
	<circle class="st3" cx="88.7" cy="40.5" r="1.7"/>
	<circle class="st3" cx="88.7" cy="48.3" r="1.7"/>
	<circle class="st3" cx="88.7" cy="56" r="1.7"/>
	<path class="st5" d="M100.9,44.4h-6.8c-0.2,0-0.4-0.2-0.4-0.4v-6.8c0-0.2,0.2-0.4,0.4-0.4h6.8c0.2,0,0.4,0.2,0.4,0.4V44
		C101.3,44.2,101.1,44.4,100.9,44.4z"/>
	<path class="st5" d="M100.9,60.1h-6.8c-0.2,0-0.4-0.2-0.4-0.4v-6.8c0-0.2,0.2-0.4,0.4-0.4h6.8c0.2,0,0.4,0.2,0.4,0.4v6.8
		C101.3,59.9,101.1,60.1,100.9,60.1z"/>
	<path class="st5" d="M100.9,28.9h-6.8c-0.2,0-0.4-0.2-0.4-0.4v-6.8c0-0.2,0.2-0.4,0.4-0.4h6.8c0.2,0,0.4,0.2,0.4,0.4v6.8
		C101.3,28.7,101.1,28.9,100.9,28.9z"/>
	<path class="st5" d="M100.9,13.3h-6.8c-0.2,0-0.4-0.2-0.4-0.4V6c0-0.2,0.2-0.4,0.4-0.4h6.8c0.2,0,0.4,0.2,0.4,0.4v6.8
		C101.3,13.1,101.1,13.3,100.9,13.3z"/>
	<path class="st0" d="M81,27.1H6.8c-0.6,0-1-0.5-1-1V8.4c0-0.6,0.5-1,1-1H81c0.6,0,1,0.5,1,1v17.7C82.1,26.6,81.6,27.1,81,27.1z"/>
	<path class="st6" d="M47.2,72.5H81c0.6,0,1-0.5,1-1V55.2c0-0.6-0.5-1-1-1H47.2c-0.6,0-1,0.5-1,1v16.2C46.2,72,46.6,72.5,47.2,72.5z
		"/>
	<rect x="74.3" y="9.6" class="st7" width="2.8" height="15.2"/>
	<line class="st8" x1="74.3" y1="13.3" x2="77.1" y2="13.3"/>
	<g>
		<circle class="st9" cx="63.1" cy="17.2" r="5.6"/>
		<ellipse class="st9" cx="63.1" cy="17.2" rx="2.8" ry="2.8"/>
	</g>
	<g>
		<line class="st7" x1="41.7" y1="24.3" x2="41.7" y2="10.2"/>
		<line class="st7" x1="40.9" y1="10.5" x2="42.6" y2="10.5"/>
		<line class="st7" x1="40.9" y1="24" x2="42.6" y2="24"/>
		<line class="st10" x1="40.9" y1="16.7" x2="42.6" y2="16.7"/>
	</g>
	<g>
		<line class="st7" x1="46.8" y1="24.3" x2="46.8" y2="10.2"/>
		<line class="st7" x1="45.9" y1="10.5" x2="47.6" y2="10.5"/>
		<line class="st7" x1="45.9" y1="24" x2="47.6" y2="24"/>
		<line class="st10" x1="45.9" y1="20" x2="47.6" y2="20"/>
	</g>
	<g>
		<line class="st7" x1="51.8" y1="24.3" x2="51.8" y2="10.2"/>
		<line class="st7" x1="51" y1="10.5" x2="52.7" y2="10.5"/>
		<line class="st7" x1="51" y1="24" x2="52.7" y2="24"/>
		<line class="st10" x1="51" y1="14.7" x2="52.7" y2="14.7"/>
	</g>
	<g>
		<g>
			<g>
				<circle class="st11" cx="139.4" cy="9.4" r="3.8"/>
				<circle class="st11" cx="139.4" cy="9.4" r="2.1"/>
			</g>
		</g>
		<g>
			<g>
				<circle class="st11" cx="111.4" cy="24.8" r="3.8"/>
				<circle class="st11" cx="111.4" cy="24.8" r="2.1"/>
			</g>
		</g>
		<g>
			<g>
				<circle class="st11" cx="125.4" cy="24.8" r="3.8"/>
				<circle class="st11" cx="125.4" cy="24.8" r="2.1"/>
			</g>
		</g>
		<g>
			<g>
				<circle class="st11" cx="139.4" cy="24.8" r="3.8"/>
				<circle class="st11" cx="139.4" cy="24.8" r="2.1"/>
			</g>
		</g>
		<g>
			<g>
				<circle class="st11" cx="111.4" cy="40.3" r="3.8"/>
				<circle class="st11" cx="111.4" cy="40.3" r="2.1"/>
			</g>
		</g>
		<g>
			<g>
				<circle class="st11" cx="125.4" cy="40.3" r="3.8"/>
				<circle class="st11" cx="125.4" cy="40.3" r="2.1"/>
			</g>
		</g>
		<g>
			<g>
				<circle class="st11" cx="139.4" cy="40.3" r="3.8"/>
				<circle class="st11" cx="139.4" cy="40.3" r="2.1"/>
			</g>
		</g>
		<g>
			<g>
				<circle class="st11" cx="111.4" cy="55.8" r="3.8"/>
				<circle class="st11" cx="111.4" cy="55.8" r="2.1"/>
			</g>
		</g>
		<g>
			<g>
				<circle class="st11" cx="125.4" cy="55.8" r="3.8"/>
				<circle class="st11" cx="125.4" cy="55.8" r="2.1"/>
			</g>
		</g>
		<g>
			<g>
				<circle class="st11" cx="139.4" cy="55.8" r="3.8"/>
				<circle class="st11" cx="139.4" cy="55.8" r="2.1"/>
			</g>
		</g>
		<g>
			<g>
				<circle class="st11" cx="125.4" cy="71.3" r="3.8"/>
				<circle class="st11" cx="125.4" cy="71.3" r="2.1"/>
			</g>
		</g>
		<g>
			<g>
				<circle class="st11" cx="139.4" cy="71.3" r="3.8"/>
				<circle class="st11" cx="139.4" cy="71.3" r="2.1"/>
			</g>
		</g>
		<g>
			<g>
				<circle class="st11" cx="97.4" cy="86.7" r="3.8"/>
				<circle class="st11" cx="97.4" cy="86.7" r="2.1"/>
			</g>
		</g>
		<g>
			<g>
				<circle class="st11" cx="111.4" cy="86.7" r="3.8"/>
				<circle class="st11" cx="111.4" cy="86.7" r="2.1"/>
			</g>
		</g>
		<g>
			<g>
				<circle class="st11" cx="139.4" cy="86.7" r="3.8"/>
				<circle class="st11" cx="139.4" cy="86.7" r="2.1"/>
			</g>
		</g>
		<g>
			<g>
				<circle class="st11" cx="111.4" cy="102.2" r="3.8"/>
				<circle class="st11" cx="111.4" cy="102.2" r="2.1"/>
			</g>
		</g>
		<g>
			<g>
				<circle class="st11" cx="125.4" cy="102.2" r="3.8"/>
				<circle class="st11" cx="125.4" cy="102.2" r="2.1"/>
			</g>
		</g>
		<g>
			<g>
				<circle class="st11" cx="139.4" cy="102.2" r="3.8"/>
				<circle class="st11" cx="139.4" cy="102.2" r="2.1"/>
			</g>
		</g>
		<g>
			<g>
				<circle class="st11" cx="125.4" cy="9.4" r="3.8"/>
				<circle class="st11" cx="125.4" cy="9.4" r="2.1"/>
			</g>
		</g>
		<g>
			<g>
				<circle class="st11" cx="97.5" cy="71.3" r="3.8"/>
				<circle class="st11" cx="97.5" cy="71.3" r="2.1"/>
			</g>
		</g>
		<g>
			<g>
				<circle class="st11" cx="111.5" cy="71.3" r="3.8"/>
				<circle class="st11" cx="111.5" cy="71.3" r="2.1"/>
			</g>
		</g>
		<g>
			<g>
				<circle class="st11" cx="125.4" cy="86.7" r="3.8"/>
				<circle class="st11" cx="125.4" cy="86.7" r="2.1"/>
			</g>
		</g>
		<g>
			<g>
				<circle class="st11" cx="97.5" cy="102.2" r="3.8"/>
				<circle class="st11" cx="97.5" cy="102.2" r="2.1"/>
			</g>
		</g>
		<g>
			<g>
				<circle class="st11" cx="111.5" cy="9.4" r="3.8"/>
				<circle class="st11" cx="111.5" cy="9.4" r="2.1"/>
			</g>
		</g>
	</g>
	<rect x="21.9" y="96.6" class="st12" width="1.7" height="9.6"/>
	<circle class="st2" cx="27.2" cy="103.8" r="1.7"/>
	<circle class="st3" cx="27.2" cy="99" r="1.7"/>
	<g>
		<defs>
			<path id="clip" d="M47.2,72.5H81c0.6,0,1-0.5,1-1V55.2c0-0.6-0.5-1-1-1H47.2c-0.6,0-1,0.5-1,1v16.2C46.2,72,46.6,72.5,47.2,72.5z
				"/>
		</defs>
		<clipPath id="clip_00000129198742026150215030000012725093576896392611_">
			<use xlink:href="#clip"  style="overflow:visible;"/>
		</clipPath>
		<g style="clip-path:url(#clip_00000129198742026150215030000012725093576896392611_);">
			<polyline class="st14" points="21.9,59.3 28.1,67.8 34.2,59.3 40.3,67.8 46.4,59.3 52.5,67.8 58.7,59.3 64.8,67.8 70.9,59.3 
				77,67.8 83.2,59.3 89.3,67.8 95.4,59.3 101.5,67.8 107.7,59.3 			"/>
		</g>
		<use xlink:href="#clip"  style="overflow:visible;fill:none;stroke:#000000;stroke-width:1.4478;stroke-miterlimit:10;"/>
	</g>
	<g>
		<circle class="st9" cx="31" cy="17" r="5.6"/>
		<ellipse class="st9" cx="31" cy="17" rx="2.8" ry="2.8"/>
	</g>
	<g>
		<circle class="st9" cx="15.2" cy="17" r="5.6"/>
		<ellipse class="st9" cx="15.2" cy="17" rx="2.8" ry="2.8"/>
	</g>
</g>
</svg>
